<svg xmlns="http://www.w3.org/2000/svg" xmlns:xlink="http://www.w3.org/1999/xlink" version="1.1" x="0px"  fill="#5D5D5D" y="0px" viewBox="0 0 64 80" style="enable-background:new 0 0 64 64;" xml:space="preserve"><g><path d="M62.6,55.199c-1.882-1.409-3.803-2.88-5.749-4.395c-0.592-1.822-3.878-13.174,1.727-24.399   c1.106,0.292,2.174,0.561,3.194,0.8c0.537,0.122,1.075-0.207,1.202-0.745c0.126-0.538-0.207-1.076-0.745-1.202   c-1.109-0.26-2.283-0.56-3.495-0.883c-1.103-2.167-6.382-13.545,0.112-20.794c1.167-0.187,2.29-0.387,3.352-0.601   c0.541-0.109,0.892-0.638,0.782-1.179c-0.11-0.541-0.631-0.891-1.179-0.782C42.09,5.005,2.425,4.03,2.026,4.018   c-0.293-0.01-0.559,0.106-0.754,0.313C1.078,4.538,0.979,4.818,1.004,5.102c0.031,0.38,3.148,38.198,0.01,56.731   c-0.092,0.545,0.274,1.061,0.819,1.153C1.89,62.995,1.945,63,2.001,63c0.479,0,0.902-0.345,0.985-0.833   c0.077-0.457,0.149-0.93,0.219-1.409c1.815-1.082,10.706-5.673,23.641-0.871c0.259,0.812,0.506,1.613,0.729,2.388   C27.7,62.715,28.101,63,28.535,63c0.092,0,0.185-0.013,0.276-0.039c0.531-0.152,0.838-0.706,0.686-1.236   c-0.219-0.766-0.462-1.554-0.717-2.355c1.847-1.882,10.848-9.949,26.809-7.015c1.966,1.531,3.91,3.022,5.811,4.446   C61.58,56.936,61.791,57,61.999,57c0.305,0,0.605-0.139,0.802-0.4C63.132,56.157,63.041,55.53,62.6,55.199z M54.223,48.742   c-4.392-3.471-8.868-7.127-13.258-10.793c-0.513-1.318-3.271-9.205,0.362-16.88c5.364,1.827,10.621,3.504,15.294,4.805   C52.144,35.113,53.2,44.187,54.223,48.742z M17.536,8.075c0.143-0.737,0.652-1.398,1.486-1.975   c2.225-0.022,4.577-0.058,7.018-0.114c-0.428,0.666-0.696,1.403-0.793,2.212c-0.237,1.988,0.627,4.008,1.567,5.561   c-3.076-1.143-6.022-2.261-8.735-3.305C17.887,10.149,17.33,9.148,17.536,8.075z M38.532,5.522c-2.65,4.424-1.08,9.628,0.24,12.551   c-2.874-1.002-5.749-2.032-8.556-3.059c-0.481-0.531-3.317-3.795-2.983-6.583c0.122-1.008,0.678-1.831,1.662-2.519   C32.047,5.82,35.293,5.694,38.532,5.522z M3.927,19.926c0.789-0.325,2.595-0.783,5.147,0.199c1.405,2.686,2.914,5.629,4.451,8.715   c-4.105-0.98-7.417,0.043-9.239,0.892C4.197,26.274,4.069,22.954,3.927,19.926z M15.606,28.543c-1.659-3.344-3.29-6.529-4.8-9.415   c0.043-0.278,0.181-0.813,0.626-1.264c0.503-0.509,1.292-0.78,2.32-0.835c2.755,2.461,5.878,5.227,9.239,8.167   C19.171,25.14,16.823,27.087,15.606,28.543z M14.991,15.454c-0.089-0.385-0.209-1.221,0.198-1.939   c0.335-0.593,1.004-1.015,1.956-1.277c3.098,1.193,6.502,2.483,10.064,3.801c-2.297,1.986-2.724,5.279-2.466,8.034   C21.18,20.958,17.886,18.04,14.991,15.454z M13.435,12.555c-0.211,0.378-0.333,0.762-0.413,1.135   c-2.358-2.117-4.391-3.958-5.994-5.417c2.049,0.818,4.63,1.838,7.569,2.98C14.113,11.615,13.718,12.044,13.435,12.555z    M11.871,15.344c-0.732,0.242-1.36,0.608-1.86,1.114c-0.143,0.144-0.265,0.293-0.377,0.442c-1.423-2.69-2.7-5.051-3.746-6.96   C7.505,11.411,9.523,13.238,11.871,15.344z M7.787,17.684c-1.681-0.308-3.029-0.118-3.963,0.161   c-0.17-3.332-0.349-6.219-0.497-8.412C4.466,11.495,6.014,14.335,7.787,17.684z M4.337,31.959c1.248-0.72,5.268-2.595,10.408-0.648   c1.759,3.586,3.528,7.32,5.197,11.046c-7.387-2.198-12.992-0.632-15.56,0.434C4.433,39.187,4.408,35.522,4.337,31.959z    M22.026,42.132c-1.739-3.907-3.59-7.827-5.432-11.587c0.728-1.18,3.383-4.532,9.199-2.906c3.518,3.056,7.249,6.258,11.082,9.488   C28.542,36.536,23.95,40.084,22.026,42.132z M27.149,26.169c-0.332-1.312-1.601-7.356,2.406-9.268   c3.23,1.182,6.552,2.369,9.86,3.512c-2.703,5.85-2.098,11.655-1.263,15.176C34.349,32.384,30.642,29.203,27.149,26.169z    M56.181,23.673c-4.523-1.286-9.555-2.905-14.675-4.655c-0.834-1.443-4.674-8.721-0.421-13.64   c5.229-0.318,10.351-0.763,14.924-1.38C51.496,10.919,54.443,19.734,56.181,23.673z M16.21,6.122   c-0.317,0.496-0.536,1.029-0.643,1.6c-0.119,0.635-0.078,1.232,0.027,1.772c-3.448-1.338-6.404-2.51-8.619-3.396   C9.394,6.124,12.562,6.141,16.21,6.122z M3.522,58.303c0.457-3.999,0.711-8.555,0.82-13.291c1.688-0.823,8.049-3.367,16.691-0.186   c1.907,4.373,3.634,8.676,5.011,12.657C14.951,53.843,6.936,56.617,3.522,58.303z M28.078,57.246   c-1.406-4.11-3.191-8.568-5.162-13.096c1.187-1.521,6.054-6.593,16.794-4.645c4.22,3.524,8.517,7.037,12.746,10.388   C39.028,48.564,30.96,54.56,28.078,57.246z"/></g></svg>